<?xml version="1.0" encoding="UTF-8" standalone="no"?>
<!DOCTYPE svg PUBLIC "-//W3C//DTD SVG 1.1//EN" "http://www.w3.org/Graphics/SVG/1.1/DTD/svg11.dtd">
<svg version="1.1" xmlns="http://www.w3.org/2000/svg" xmlns:xlink="http://www.w3.org/1999/xlink" preserveAspectRatio="xMidYMid meet" viewBox="0 0 18 18" width="18" height="18"><defs><path d="M10.04 10.49C8.99 9.13 8.02 8.87 7.05 8.66C5.87 8.39 5.27 7.71 4.84 6.96C4.76 6.81 4.72 6.84 4.71 7.03C4.7 7.26 4.72 7.57 4.77 7.88C4.77 7.88 4.77 7.88 4.77 7.88C4.72 7.88 4.67 7.88 4.63 7.88C2.94 7.88 1.57 6.48 1.57 4.74C1.57 3.01 2.94 1.61 4.63 1.61C6.32 1.61 7.68 3.01 7.68 4.74C7.68 4.87 7.68 4.99 7.66 5.11C7.44 5.07 7 5.06 6.69 5.09C6.58 5.1 6.59 5.15 6.68 5.17C7.69 5.36 8.39 6 8.55 7.17C8.55 7.19 8.59 7.2 8.6 7.18C9.01 6.47 9.25 5.63 9.25 4.74C9.25 2.12 7.18 0 4.63 0C2.07 0 0 2.12 0 4.74C0 7.36 2.07 9.49 4.63 9.49C5.31 9.49 5.98 9.35 6.96 9.35C7.85 9.35 8.81 9.66 9.88 10.63C9.98 10.73 10.13 10.61 10.04 10.49ZM7.19 8.3C7.08 8.3 6.96 8.25 6.88 8.18C6.69 8.01 6.63 7.74 6.76 7.59C6.8 7.53 6.88 7.49 6.98 7.49C7.09 7.49 7.21 7.54 7.31 7.63C7.52 7.81 7.58 8.02 7.47 8.17C7.41 8.25 7.31 8.3 7.19 8.3ZM8.26 7.18C8.29 7.38 8.22 7.47 8.16 7.47C8.09 7.47 8 7.38 7.9 7.22C7.79 7.06 7.76 6.87 7.81 6.77C7.84 6.71 7.91 6.68 8 6.71C8.17 6.78 8.24 7.05 8.26 7.18" id="a2NleONjH8"></path><path d="M0 9.23C0 6.05 2.52 3.46 5.62 3.46C8.73 3.46 11.25 6.05 11.25 9.23C11.25 12.42 8.73 15 5.62 15C2.52 15 0 12.42 0 9.23Z" id="a1YArEiGlD"></path><path d="M0 9.23C0 6.05 2.52 3.46 5.62 3.46C8.73 3.46 11.25 6.05 11.25 9.23C11.25 12.42 8.73 15 5.62 15C2.52 15 0 12.42 0 9.23Z" id="c1PF6bwewL"></path><path d="M9.02 4.62C9.2 4.79 9.41 4.93 9.56 5.13C9.45 5.14 8.51 5.16 8.4 5.16C8.22 5.35 8.04 5.55 7.88 5.77C8.09 5.77 9.74 5.77 9.95 5.77C10.11 5.96 10.25 6.13 10.38 6.34C10.09 6.34 7.8 6.34 7.52 6.34C7.41 6.53 7.31 6.71 7.23 6.91C7.57 6.91 10.36 6.91 10.71 6.91C10.8 7.11 10.89 7.26 10.95 7.47C10.56 7.47 7.42 7.47 7.02 7.47C6.96 7.67 6.9 7.87 6.86 8.08C7.29 8.08 10.69 8.08 11.12 8.08C11.16 8.28 11.19 8.46 11.21 8.66C10.77 8.66 7.22 8.66 6.78 8.66C6.76 8.85 6.75 9.04 6.75 9.23C7.2 9.23 10.79 9.23 11.25 9.23C11.25 9.44 11.23 9.62 11.21 9.81C10.76 9.81 7.22 9.81 6.78 9.81C6.8 10.01 6.83 10.2 6.86 10.38C7.29 10.38 10.68 10.38 11.11 10.38C11.07 10.58 11.02 10.76 10.95 10.95C10.56 10.95 7.4 10.95 7.01 10.95C7.06 11.15 7.14 11.34 7.21 11.53C7.57 11.53 10.36 11.53 10.71 11.53C10.61 11.74 10.5 11.91 10.38 12.1C10.09 12.1 7.79 12.1 7.5 12.1C7.62 12.31 7.74 12.5 7.88 12.69C8.09 12.69 9.74 12.71 9.95 12.72C9.77 12.93 9.55 13.06 9.34 13.26C9.35 13.26 9.01 13.26 8.34 13.24C9.36 14.33 10.79 15 12.38 15C15.48 15 18 12.42 18 9.23C18 6.05 15.48 3.46 12.38 3.46C11.12 3.46 9.95 3.89 9.01 4.62C9.02 4.62 9.02 4.62 9.02 4.62Z" id="b4eBc5E2bQ"></path><path d="M9.02 1.74C9.2 1.92 9.41 2.05 9.56 2.26C9.45 2.27 8.51 2.28 8.4 2.28C8.22 2.47 8.04 2.68 7.88 2.9C8.09 2.9 9.74 2.9 9.95 2.9C10.11 3.09 10.25 3.26 10.38 3.46C10.09 3.46 7.8 3.46 7.52 3.46C7.41 3.66 7.31 3.84 7.23 4.04C7.57 4.04 10.36 4.04 10.71 4.04C10.8 4.24 10.89 4.39 10.95 4.6C10.56 4.6 7.42 4.6 7.02 4.6C6.96 4.8 6.9 5 6.86 5.21C7.29 5.21 10.69 5.21 11.12 5.21C11.16 5.41 11.19 5.59 11.21 5.78C10.77 5.78 7.22 5.78 6.78 5.78C6.76 5.98 6.75 6.17 6.75 6.36C7.2 6.36 10.79 6.36 11.25 6.36C11.25 6.57 11.23 6.75 11.21 6.94C10.76 6.94 7.22 6.94 6.78 6.94C6.8 7.13 6.83 7.33 6.86 7.51C7.29 7.51 10.68 7.51 11.11 7.51C11.07 7.7 11.02 7.89 10.95 8.08C10.56 8.08 7.4 8.08 7.01 8.08C7.06 8.28 7.14 8.47 7.21 8.66C7.57 8.66 10.36 8.66 10.71 8.66C10.61 8.87 10.5 9.04 10.38 9.23C10.09 9.23 7.79 9.23 7.5 9.23C7.62 9.44 7.74 9.63 7.88 9.82C8.09 9.82 9.74 9.84 9.95 9.85C9.77 10.06 9.55 10.19 9.34 10.38C9.35 10.39 9.01 10.38 8.34 10.37C9.36 11.46 10.79 12.13 12.38 12.13C15.48 12.13 18 9.54 18 6.36C18 3.18 15.48 0.59 12.38 0.59C11.12 0.59 9.95 1.02 9.01 1.74C9.02 1.74 9.02 1.74 9.02 1.74Z" id="aZC1O39Iv"></path></defs><g><g><g><use xlink:href="#a2NleONjH8" opacity="1" fill="#000000" fill-opacity="0"></use><g><use xlink:href="#a2NleONjH8" opacity="1" fill-opacity="0" stroke="#000000" stroke-width="1" stroke-opacity="0"></use></g></g><g><use xlink:href="#a1YArEiGlD" opacity="1" fill="#e2574c" fill-opacity="1"></use><g><use xlink:href="#a1YArEiGlD" opacity="1" fill-opacity="0" stroke="#000000" stroke-width="1" stroke-opacity="0"></use></g></g><g><use xlink:href="#c1PF6bwewL" opacity="1" fill="#000000" fill-opacity="0"></use><g><use xlink:href="#c1PF6bwewL" opacity="1" fill-opacity="0" stroke="#000000" stroke-width="1" stroke-opacity="0"></use></g></g><g><use xlink:href="#b4eBc5E2bQ" opacity="1" fill="#f4b459" fill-opacity="1"></use><g><use xlink:href="#b4eBc5E2bQ" opacity="1" fill-opacity="0" stroke="#000000" stroke-width="1" stroke-opacity="0"></use></g></g><g><use xlink:href="#aZC1O39Iv" opacity="1" fill="#000000" fill-opacity="0"></use><g><use xlink:href="#aZC1O39Iv" opacity="1" fill-opacity="0" stroke="#000000" stroke-width="1" stroke-opacity="0"></use></g></g></g></g></svg>