<?xml version="1.0" encoding="UTF-8"?>
<!-- Generated by Pixelmator Pro 3.2.3 -->
<svg width="18" height="18" viewBox="0 0 18 18" xmlns="http://www.w3.org/2000/svg" xmlns:xlink="http://www.w3.org/1999/xlink">
    <g id="tinkoff-1">
        <path id="path1" fill="#ffffff" stroke="none" d="M 18 7.697929 L 17.227161 7.719854 C 16.865408 7.70341 16.520098 7.588307 16.224115 7.374543 C 16.257004 7.380024 16.295372 7.380024 16.328259 7.380024 C 16.799635 7.380024 17.232643 7.11693 17.446407 6.694884 L 17.780754 5.965895 C 17.51218 5.965895 17.249086 5.954933 16.980511 5.916566 C 16.72838 5.856273 16.498173 5.719245 16.328259 5.527406 C 16.098051 5.286236 15.774664 5.143728 15.434835 5.143728 C 15.303288 5.143728 15.171741 5.165652 15.045676 5.20402 C 15.062119 5.143728 15.078562 5.083435 15.089524 5.023143 C 15.144337 4.595615 15.018271 4.162607 14.749696 3.822777 L 14.168696 3.11023 L 13.806943 3.948843 C 13.752131 4.069427 13.664433 4.168087 13.54933 4.244823 C 13.489038 3.948843 13.341047 3.674788 13.121803 3.461022 C 12.754568 3.093788 12.255786 2.885505 11.735079 2.890987 C 11.6419 2.890987 11.554202 2.896467 11.466504 2.91291 L 10.76492 3.049938 C 10.825213 2.814252 10.918392 2.589526 11.049939 2.381243 L 11.439099 1.7838 L 10.463459 1.893423 L 10.151035 1.241169 L 9.548112 1.548113 L 9 1 L 8.446406 1.542629 L 7.843483 1.235689 L 7.53106 1.887941 L 6.55542 1.778318 L 6.94458 2.375762 C 7.070645 2.584044 7.169306 2.808769 7.229599 3.044457 L 6.560901 2.91291 L 6.538977 2.90743 C 6.445798 2.890987 6.352619 2.885505 6.25944 2.885505 C 5.738733 2.880025 5.23447 3.088307 4.872716 3.455542 C 4.653471 3.669305 4.505481 3.943361 4.445189 4.239342 C 4.335566 4.168087 4.247869 4.069427 4.193057 3.954324 L 3.831303 3.115713 L 3.239342 3.833739 C 2.976249 4.17357 2.855664 4.606577 2.910475 5.028624 C 2.921437 5.088916 2.937881 5.149208 2.954324 5.2095 C 2.828258 5.171133 2.696711 5.149208 2.565165 5.149208 C 2.225335 5.149208 1.901949 5.291718 1.671742 5.532887 C 1.501827 5.724726 1.277101 5.861753 1.030451 5.922046 C 0.761876 5.960414 0.493301 5.976857 0.224726 5.971376 L 0.553593 6.700365 C 0.761876 7.122412 1.194884 7.385506 1.671742 7.385506 C 1.71011 7.385506 1.742996 7.380024 1.775883 7.380024 C 1.485384 7.588307 1.140073 7.708892 0.7838 7.725335 L -0 7.697929 L 0.241169 8.437881 C 0.416565 9.018879 0.920828 9.440926 1.529233 9.517662 C 1.463459 9.906821 1.211328 10.246651 0.855055 10.416565 L 0.268575 10.657735 L 0.58648 11.205847 C 0.849574 11.61145 1.304507 11.852618 1.792327 11.852618 C 1.918392 11.852618 2.044458 11.841657 2.170524 11.814251 C 2.203411 11.951279 2.241778 12.088306 2.285627 12.219853 C 2.39525 12.510353 2.406212 12.828259 2.307552 13.118757 L 2.017053 13.7162 L 2.663824 13.886114 C 2.811815 13.924482 2.959805 13.940926 3.113277 13.940926 C 3.217418 13.940926 3.32704 13.929964 3.431182 13.908039 C 3.502436 13.891596 3.579172 13.869671 3.650426 13.842266 C 3.732643 13.990256 3.836784 14.127284 3.951888 14.247869 C 4.417783 14.686357 5.053593 14.916565 5.694884 14.878197 L 6.182704 14.872717 L 5.130329 15.322168 L 5.963459 15.72229 C 6.297807 15.886724 6.637637 16.040194 6.988429 16.171741 L 6.884287 16.451279 L 7.169306 16.582827 C 7.646163 16.769184 8.150427 16.873325 8.665651 16.889769 C 8.665651 16.889769 8.884896 16.90073 9.010962 16.90073 C 9.137028 16.90073 9.350791 16.889769 9.350791 16.889769 C 9.860536 16.873325 10.359318 16.769184 10.836176 16.582827 L 11.121194 16.451279 L 11.017053 16.171741 C 11.367844 16.040194 11.718636 15.886724 12.052984 15.716808 L 12.869671 15.322168 L 11.778928 14.872717 L 12.310596 14.878197 C 12.957369 14.916565 13.587698 14.686357 14.053593 14.242388 C 14.174178 14.121803 14.272839 13.984776 14.355054 13.836784 C 14.42631 13.864189 14.497564 13.886114 14.5743 13.908039 C 14.67844 13.929964 14.782583 13.940926 14.892203 13.940926 C 15.040195 13.940926 15.188185 13.924482 15.336175 13.886114 L 15.982947 13.7162 L 15.697929 13.129719 C 15.599269 12.833739 15.604751 12.510353 15.714372 12.214373 C 15.758222 12.077344 15.796589 11.945797 15.829476 11.808769 C 15.955543 11.836176 16.081608 11.847137 16.207674 11.847137 C 16.695492 11.852618 17.155907 11.605968 17.413521 11.194884 L 17.731424 10.652254 L 17.144945 10.416565 C 16.78319 10.241169 16.531059 9.906821 16.470766 9.517662 C 17.079172 9.440926 17.583435 9.018879 17.758831 8.437881 Z"/>
        <path id="path2" fill="#ffe710" stroke="none" d="M 11.674787 10.767357 L 6.330694 10.767357 L 6.330694 12.751522 C 6.330694 13.562729 6.922655 14.072473 7.805116 14.072473 C 8.539586 14.072473 8.731425 14.099878 9.005482 14.368453 C 9.175396 14.187576 9.416565 14.088915 9.668696 14.088915 L 9.674177 14.056029 L 9.844092 13.540804 C 9.833131 13.529842 9.559074 13.217419 9.559074 13.217419 C 9.443971 13.250305 9.323386 13.266747 9.202802 13.261267 C 9.027405 13.261267 8.846528 13.239342 8.671132 13.206455 C 8.65469 13.200974 8.632765 13.200974 8.616322 13.200974 C 8.594398 13.200974 8.588916 13.200974 8.583435 13.211937 L 8.550549 13.266747 L 8.490255 13.365408 L 8.375153 13.338003 L 7.859927 13.217419 L 7.788672 13.332521 L 7.799634 13.343484 L 7.859927 13.409256 L 7.832522 13.496954 C 7.788672 13.606577 7.717418 13.699757 7.635201 13.787455 L 7.509136 13.935445 L 7.394032 13.787455 L 7.306334 13.677832 C 7.213155 13.557247 7.18575 13.398295 7.246041 13.255786 L 7.24056 13.255786 L 7.098052 13.316078 L 7.032278 13.179049 L 6.988429 13.08039 C 6.89525 12.872107 6.966504 12.630938 7.152862 12.499391 L 7.563946 12.269184 L 7.958587 12.345921 C 7.96955 12.307551 7.980511 12.176004 7.991474 12.143118 C 7.985992 12.143118 7.97503 12.143118 7.96955 12.143118 L 7.744823 12.225334 L 7.525578 12.077344 C 7.503654 12.05542 7.487211 12.028015 7.487211 11.995128 C 7.487211 11.962241 7.498173 11.934835 7.520097 11.91291 L 7.733861 11.595006 L 7.196711 10.931791 L 8.018879 11.266138 L 8.07369 11.200365 L 8.183313 11.068819 L 8.309379 11.189404 C 8.342265 11.22229 8.36419 11.260657 8.375153 11.304506 C 8.720463 11.419611 8.978075 11.71559 9.043849 12.066383 L 8.917784 12.115713 L 8.917784 12.121194 C 8.934226 12.143118 8.956151 12.159561 8.978075 12.170523 L 9.564556 12.225334 C 9.580998 12.225334 9.597443 12.214373 9.619366 12.208892 C 9.718026 12.170523 9.827649 12.1486 9.931791 12.1486 C 10.035932 12.1486 10.140073 12.170523 10.238733 12.219853 C 10.282582 12.203411 10.326431 12.197929 10.37028 12.192448 L 10.397685 12.192448 C 10.655298 12.214373 10.885506 12.373325 10.995128 12.609014 C 11.017053 12.6419 11.038977 12.669306 11.060902 12.702192 C 11.170524 12.855663 11.313032 13.08039 11.318514 13.091352 L 11.384288 13.190012 L 11.307551 13.283192 C 11.236298 13.376369 11.121194 13.436663 10.995128 13.436663 C 10.956759 13.436663 10.923874 13.431181 10.890987 13.4257 C 10.8581 13.420219 10.825213 13.409256 10.797808 13.398295 C 10.792327 13.431181 10.786845 13.464067 10.781364 13.496954 L 10.677222 14.028624 C 11.280146 13.908039 11.707674 13.370889 11.685749 12.762484 Z"/>
        <path id="path3" fill="#ffe710" stroke="none" d="M 6.330694 10.608404 L 10.485383 10.608404 C 10.315469 10.433008 10.260657 10.180877 10.331912 9.956151 C 10.277102 9.928746 10.22229 9.895859 10.178441 9.857491 C 10.014008 9.978075 9.520707 10.334349 9.389159 10.422047 L 9.361753 10.43849 L 7.733861 10.147991 L 7.700974 10.147991 C 7.646163 10.147991 7.596833 10.142509 7.542022 10.137028 C 7.525578 10.208282 7.459805 10.257612 7.38855 10.257612 C 7.377588 10.257612 7.372108 10.257612 7.361145 10.257612 C 7.273447 10.241169 7.213155 10.164433 7.229599 10.076735 L 7.23508 10.043849 C 7.026796 9.895859 6.928136 9.638247 6.982947 9.391595 L 6.988429 9.36419 L 7.010354 9.347746 C 7.015834 9.347746 7.04324 9.325823 7.081608 9.303898 L 6.961023 9.287455 C 6.917175 9.281974 6.889769 9.238125 6.89525 9.194276 C 6.900731 9.172351 6.911694 9.155907 6.928136 9.139464 C 6.94458 9.12302 6.966504 9.12302 6.988429 9.12302 L 7.273447 9.166869 L 7.300852 8.185749 L 7.722899 7.747259 L 7.985992 8.295371 L 7.711936 9.238125 L 7.964068 9.276492 C 8.007917 9.281974 8.040804 9.325823 8.029841 9.369672 C 8.02436 9.408039 7.991474 9.435444 7.947625 9.435444 C 7.942143 9.435444 7.936662 9.435444 7.936662 9.435444 L 7.733861 9.402557 C 7.733861 9.408039 7.739343 9.41352 7.744823 9.419002 C 7.766748 9.457369 7.799634 9.490255 7.843483 9.5067 L 9.087698 9.528624 C 9.142509 9.479293 9.268575 9.353228 9.405602 9.2162 C 9.164433 9.128502 9 8.920219 8.972595 8.668088 C 8.819123 8.607795 8.693058 8.498173 8.616322 8.350183 C 8.556029 8.213155 8.545067 8.059683 8.588916 7.917174 C 8.391595 7.840438 8.2162 7.725335 8.068209 7.571863 L 6.193666 7.571863 C 6.281363 7.785626 6.330694 8.015834 6.341656 8.246041 Z"/>
        <g id="g1">
            <path id="path4" fill="#231f20" stroke="none" d="M 10.819732 16.319733 L 10.529232 16.401947 C 10.03045 16.538977 9.520707 16.610231 9.005482 16.615713 L 9 16.615713 C 8.484775 16.610231 7.96955 16.538977 7.470767 16.401947 L 7.180268 16.319733 L 7.306334 15.979903 C 6.939098 15.875761 6.577345 15.738733 6.237515 15.5743 L 5.629111 15.278318 L 6.522533 14.982338 L 6.264921 14.149208 L 6.834957 14.428745 C 7.147382 14.582217 7.470767 14.713764 7.805116 14.812424 L 8.084653 14.89464 L 8.013399 15.08648 C 8.331304 15.157736 8.66017 15.196103 8.983556 15.201584 L 9.005482 15.201584 C 9.334349 15.196103 9.663215 15.163216 9.98112 15.08648 L 9.909866 14.89464 L 10.189404 14.812424 C 10.523752 14.713764 10.847138 14.582217 11.159562 14.428745 L 11.729598 14.149208 L 11.471986 14.982338 L 12.365408 15.278318 L 11.757004 15.5743 C 11.411693 15.738733 11.05542 15.875761 10.688185 15.979903 Z M 11.6419 15.327649 L 11.137637 15.163216 L 11.285627 14.680877 C 10.984166 14.828867 10.671741 14.954932 10.348355 15.059075 L 10.595006 15.72229 C 10.956759 15.618148 11.307551 15.486602 11.6419 15.327649 Z M 10.085261 15.349574 C 9.73447 15.431791 9.378198 15.475639 9.016444 15.475639 L 8.989038 15.475639 C 8.627284 15.47016 8.271011 15.431791 7.920219 15.349574 L 7.646163 16.084044 L 7.613276 16.171741 C 8.090134 16.303288 8.5067 16.336176 9 16.336176 C 9.4933 16.330694 9.904385 16.275883 10.381243 16.144337 L 10.348355 16.056639 Z M 6.719854 14.675396 L 6.867845 15.157736 L 6.363581 15.322168 C 6.697929 15.486602 7.048721 15.618148 7.410475 15.716808 L 7.657125 15.053593 C 7.333739 14.954932 7.021315 14.828867 6.719854 14.675396 Z"/>
            <path id="path5" fill="#231f20" stroke="none" d="M 10.408648 3.115713 C 10.474422 2.786846 10.595006 2.479903 10.770402 2.194884 L 10.266139 2.249695 L 10.003045 1.696102 L 9.498782 1.953714 L 9.005482 1.471376 L 8.517662 1.953714 L 8.002437 1.696102 L 7.739343 2.249695 L 7.23508 2.194884 C 7.410475 2.479903 7.536541 2.792327 7.596833 3.115713 C 8.007917 2.825214 8.495737 2.677223 9 2.693666 C 9.504263 2.677223 9.997563 2.825214 10.408648 3.115713 Z M 7.772229 2.693666 C 7.755785 2.638854 7.733861 2.578564 7.711936 2.523751 L 7.909257 2.545676 L 8.133983 2.068819 L 8.566991 2.288062 L 9.005482 1.855055 L 9.443971 2.288062 L 9.87698 2.068819 L 10.101706 2.545676 L 10.299026 2.523751 C 10.277102 2.578564 10.255176 2.638854 10.238733 2.693666 C 9.860536 2.501826 9.438489 2.408648 9.005482 2.41961 C 8.572473 2.408648 8.150427 2.501826 7.772229 2.693666 Z"/>
            <path id="path6" fill="#231f20" stroke="none" d="M 16.350183 9.183313 L 16.311813 9.183313 C 16.235079 9.183313 16.158342 9.172351 16.081608 9.155907 C 16.114496 9.599878 16.278929 10.422047 17.024361 10.728989 L 17.254568 10.822168 L 17.133982 11.035932 C 16.931181 11.342875 16.591352 11.523752 16.218636 11.51827 C 15.99391 11.51827 15.769184 11.468941 15.571863 11.37028 C 15.538976 11.622412 15.484165 11.874543 15.401948 12.115713 C 15.259439 12.488428 15.259439 12.894032 15.396468 13.266747 L 15.50609 13.496954 L 15.25396 13.562729 C 15.133374 13.590134 15.012789 13.606577 14.892203 13.606577 C 14.809988 13.606577 14.733253 13.595615 14.656517 13.579172 C 14.492082 13.540804 14.333131 13.464067 14.207065 13.354446 C 14.130329 13.601096 13.993301 13.820341 13.817904 14.006699 C 13.412302 14.379416 12.869671 14.576736 12.316077 14.538368 L 11.921437 14.532887 L 12.140682 14.20402 C 12.250304 13.979294 12.305116 13.732643 12.310596 13.485992 C 12.316077 13.03106 12.502436 12.598051 12.831304 12.280146 C 12.765531 12.247259 12.699757 12.208892 12.644945 12.159561 C 12.431182 11.984166 12.310596 11.721071 12.310596 11.447016 L 12.32704 11.249696 L 12.524361 11.244215 C 12.984775 11.266138 13.428745 11.079781 13.730206 10.73447 C 13.79598 10.657735 13.850792 10.580998 13.900122 10.4933 C 13.702802 10.553593 13.494519 10.580998 13.291718 10.580998 C 13.225944 10.580998 13.160171 10.575518 13.088916 10.570036 C 12.847747 10.548112 12.617539 10.449451 12.436663 10.29598 L 12.228379 10.109623 L 12.464068 9.961633 C 13.20402 9.545067 13.489038 8.635201 13.116322 7.884287 C 12.847747 7.160779 12.222898 6.508526 11.214373 5.878197 C 10.929355 5.746651 10.732034 5.483557 10.688185 5.176613 C 10.688185 4.803897 11.000608 4.661388 11.230816 4.557247 C 11.334957 4.51888 11.433618 4.458588 11.515835 4.387333 C 11.69123 4.184532 11.54324 3.795372 11.378806 3.581607 L 11.170524 3.307551 L 11.510353 3.241778 C 11.587089 3.230816 11.669306 3.225336 11.746041 3.225336 C 12.173569 3.219853 12.590134 3.389769 12.891596 3.696711 C 13.143727 3.943361 13.275273 4.283191 13.247869 4.628501 C 13.280755 4.628501 13.313643 4.633984 13.346529 4.633984 L 13.384896 4.633984 C 13.713764 4.601096 13.998782 4.392813 14.130329 4.091352 L 14.272839 3.762486 L 14.497564 4.036541 C 14.733253 4.316077 14.82643 4.683313 14.755176 5.034105 C 14.683923 5.384896 14.448235 5.69184 14.124848 5.850792 C 14.091961 5.872716 14.064555 5.894641 14.03715 5.916566 C 14.661998 6.163216 15.188185 6.596224 15.544458 7.155298 L 15.604751 7.226553 C 15.999391 7.725335 16.596832 8.026796 17.238125 8.048721 L 17.539585 8.037759 L 17.446407 8.322778 C 17.292934 8.816078 16.859926 9.150427 16.350183 9.183313 Z M 16.317297 8.909257 L 16.344702 8.909257 C 16.706455 8.881851 17.018879 8.657125 17.155907 8.328259 C 16.459805 8.28441 15.813032 7.950061 15.380025 7.407431 L 15.303288 7.30877 C 14.974422 6.799026 14.492082 6.398904 13.922046 6.174178 L 13.499999 6.009744 L 13.839829 5.713764 C 13.878197 5.680878 13.922046 5.64799 13.98782 5.609622 C 14.239951 5.483557 14.420829 5.253349 14.475639 4.979294 C 14.524969 4.738124 14.475639 4.485993 14.333131 4.283191 C 14.146771 4.628501 13.801462 4.864189 13.379416 4.908039 L 13.330085 4.908039 L 13.30268 4.908039 C 13.264312 4.908039 13.247869 4.902557 13.225944 4.902557 L 12.951887 4.880633 L 12.973812 4.606577 C 12.995736 4.338002 12.891596 4.074909 12.694275 3.88307 C 12.447624 3.630938 12.102314 3.49391 11.746041 3.49391 C 11.718636 3.49391 11.685749 3.49391 11.658343 3.49391 C 11.888551 3.839221 11.965286 4.27771 11.696712 4.584653 C 11.587089 4.677832 11.466504 4.754568 11.34592 4.798417 C 11.05542 4.929963 10.962241 5.01218 10.962241 5.127283 C 10.995128 5.341047 11.137637 5.527406 11.362363 5.637028 C 12.420219 6.294763 13.083435 6.990865 13.362971 7.75274 C 13.785018 8.613276 13.483557 9.638247 12.688794 10.137028 C 12.814859 10.224726 12.96285 10.279537 13.110841 10.2905 C 13.198538 10.29598 13.247869 10.29598 13.297198 10.29598 C 13.478076 10.29598 13.653471 10.268575 13.828867 10.219244 L 14.492082 10.021924 L 14.146771 10.619366 C 14.08648 10.718027 14.020706 10.816687 13.943971 10.904385 C 13.604141 11.299026 13.105359 11.51827 12.595614 11.512789 C 12.612059 11.677223 12.694275 11.830694 12.831304 11.940316 C 12.869671 11.973204 12.908038 11.995128 12.951887 12.017053 L 13.319122 12.186967 L 13.028624 12.466504 C 12.754568 12.735079 12.595614 13.096832 12.590134 13.475031 C 12.590134 13.738124 12.535323 13.995736 12.420219 14.258831 C 12.869671 14.269793 13.308161 14.105359 13.631547 13.80938 C 13.779537 13.655908 13.894641 13.469549 13.960414 13.261267 L 14.08648 12.872107 L 14.398904 13.135201 C 14.497564 13.217419 14.612667 13.272228 14.733253 13.299635 C 14.793546 13.310596 14.848355 13.321559 14.908648 13.316078 C 14.985384 13.316078 15.062119 13.310596 15.133374 13.294153 C 14.990864 12.872107 15.001826 12.411693 15.155299 12.00609 C 15.232035 11.781364 15.286845 11.551157 15.31425 11.315469 L 15.363581 10.931791 L 15.708892 11.107187 C 15.867845 11.189404 16.048719 11.227771 16.235079 11.227771 C 16.48173 11.233252 16.717417 11.118148 16.865408 10.937271 C 16.180267 10.624847 15.878807 9.95067 15.823995 9.161388 L 15.796589 8.799634 L 16.152863 8.87089 C 16.196711 8.898294 16.257004 8.909257 16.317297 8.909257 Z M 15.067601 8.848965 L 15.067601 8.838002 C 15.182704 9.60536 15.188185 9.835567 15.084044 9.528624 C 15.001826 10.778319 14.387941 11.649817 13.664433 12.482948 C 13.445189 12.735079 13.269793 13.025579 13.160171 13.338003 C 13.220463 13.020098 13.357491 12.724116 13.554811 12.471985 C 14.228989 11.671741 14.87028 10.674177 14.919611 9.523142 C 14.957978 8.821559 14.782583 8.130938 14.415347 7.528014 C 14.645555 8.191231 14.207065 7.193666 13.461632 6.453715 C 12.880633 6.015225 12.266747 5.626065 11.625456 5.280756 C 11.757004 5.280756 11.992691 5.373934 12.32704 5.560292 C 12.458587 5.626065 12.562728 5.675395 12.633983 5.713764 C 13.823385 6.349574 14.886724 7.401949 15.067601 8.848965 Z"/>
            <path id="path7" fill="#231f20" stroke="none" d="M 14.925091 6.009744 L 14.612667 5.84531 L 14.903166 5.642509 C 15.062119 5.538367 15.248477 5.483557 15.440315 5.483557 C 15.686967 5.483557 15.922655 5.587697 16.087088 5.768576 C 16.311813 6.026188 16.618757 6.196102 16.953106 6.256394 L 17.26553 6.272839 L 17.133982 6.557856 C 16.980511 6.859318 16.668087 7.045676 16.328259 7.045676 C 16.240561 7.045676 16.158342 7.034714 16.076128 7.007308 C 15.862362 6.914129 15.681486 6.766139 15.555421 6.568818 C 15.390987 6.344092 15.177222 6.152253 14.925091 6.009744 Z M 15.445798 5.757613 C 15.341658 5.757613 15.237514 5.779538 15.149817 5.823385 C 15.396468 5.976857 15.610231 6.179659 15.791109 6.420828 C 15.88977 6.568818 16.026798 6.683923 16.169306 6.749696 C 16.224115 6.766139 16.278929 6.777102 16.333738 6.777102 C 16.542023 6.777102 16.73386 6.67296 16.848965 6.519488 C 16.47625 6.437272 16.136417 6.239951 15.88977 5.960414 C 15.774664 5.834348 15.610231 5.763093 15.445798 5.757613 Z"/>
            <path id="path8" fill="#231f20" stroke="none" d="M 5.87028 14.20402 L 6.089525 14.532887 L 5.694884 14.538368 C 5.141291 14.576736 4.59866 14.379416 4.193057 14.006699 C 4.01218 13.820341 3.880633 13.595615 3.803897 13.354446 C 3.672351 13.464067 3.518879 13.540804 3.348964 13.579172 C 3.272229 13.595615 3.195493 13.606577 3.113277 13.606577 C 2.992692 13.606577 2.872107 13.590134 2.757004 13.562729 L 2.504872 13.496954 L 2.614495 13.266747 C 2.751523 12.894032 2.746042 12.482948 2.609014 12.115713 C 2.526796 11.874543 2.466504 11.622412 2.439099 11.37028 C 2.241778 11.468941 2.017053 11.523752 1.792327 11.51827 C 1.425092 11.523752 1.079781 11.342875 0.876979 11.035932 L 0.756395 10.822168 L 0.986602 10.728989 C 1.732034 10.422047 1.896468 9.599878 1.929355 9.155907 C 1.852619 9.172351 1.775883 9.177832 1.699148 9.183313 L 1.660779 9.183313 C 1.151036 9.150427 0.718027 8.816078 0.570037 8.333739 L 0.476857 8.048721 L 0.7838 8.059683 C 1.425092 8.037759 2.022533 7.736298 2.417174 7.237514 L 2.477467 7.166261 C 2.833739 6.607186 3.365408 6.168696 3.984775 5.927527 C 3.957369 5.905603 3.924482 5.883678 3.897077 5.861753 C 3.573691 5.69732 3.338002 5.395859 3.266748 5.045068 C 3.195493 4.688794 3.288672 4.32156 3.518879 4.047503 L 3.749087 3.773448 L 3.891596 4.102314 C 4.023142 4.403775 4.308161 4.612059 4.637028 4.644945 L 4.675395 4.644945 C 4.708282 4.644945 4.741169 4.639463 4.774056 4.639463 C 4.74665 4.288672 4.878197 3.948843 5.130329 3.707673 C 5.43179 3.406212 5.842875 3.236299 6.270402 3.236299 C 6.347137 3.236299 6.429354 3.241778 6.506091 3.252741 L 6.84592 3.318514 L 6.632156 3.592569 C 6.467722 3.806334 6.319732 4.195494 6.495128 4.398295 C 6.577345 4.469549 6.676005 4.52984 6.780147 4.56821 C 7.010354 4.672351 7.322777 4.820342 7.322777 5.187575 C 7.278928 5.494519 7.081608 5.757613 6.796589 5.889159 C 5.788063 6.514007 5.163216 7.171741 4.894641 7.895249 C 4.521924 8.651644 4.812424 9.561511 5.546895 9.972595 L 5.782582 10.120584 L 5.5743 10.306942 C 5.387941 10.460415 5.163216 10.559074 4.916565 10.580998 C 4.845311 10.586479 4.779537 10.591961 4.713764 10.591961 C 4.505481 10.591961 4.30268 10.564556 4.105359 10.504263 C 4.154689 10.591961 4.214982 10.668696 4.275274 10.745433 C 4.576736 11.090743 5.020706 11.277102 5.481121 11.255177 L 5.678441 11.260657 L 5.689403 11.457977 C 5.689403 11.732035 5.568819 11.995128 5.360536 12.170523 C 5.305725 12.219853 5.239952 12.258223 5.174178 12.291109 C 5.503046 12.609014 5.689403 13.042021 5.700365 13.496954 C 5.705846 13.732643 5.760658 13.979294 5.87028 14.20402 Z M 4.379415 13.80938 C 4.708282 14.11084 5.141291 14.280755 5.596223 14.269793 C 5.486602 14.023143 5.43179 13.754568 5.426309 13.491474 C 5.420828 13.113276 5.261876 12.746041 4.98782 12.482948 L 4.69732 12.203411 L 5.064555 12.033495 C 5.108404 12.011572 5.146772 11.989647 5.190621 11.951279 C 5.322168 11.841657 5.404385 11.682704 5.420828 11.523752 C 4.905603 11.529232 4.412302 11.304506 4.072473 10.915347 C 3.995737 10.827649 3.929964 10.73447 3.869671 10.63581 L 3.518879 10.038368 L 4.182095 10.235688 C 4.352009 10.285019 4.532887 10.312424 4.713764 10.312424 C 4.763093 10.312424 4.812424 10.312424 4.88916 10.306942 C 5.048112 10.2905 5.196102 10.235688 5.322168 10.153472 C 4.521924 9.649209 4.225944 8.624239 4.631547 7.791108 C 4.922046 7.007308 5.585262 6.305725 6.670524 5.637028 C 6.873326 5.543849 7.010354 5.357491 7.037759 5.182096 C 7.037759 5.023143 6.94458 4.940925 6.670524 4.820342 C 6.538977 4.771011 6.412911 4.694275 6.275884 4.57369 C 6.029233 4.294153 6.111449 3.850183 6.341656 3.510354 C 6.314251 3.510354 6.281363 3.504872 6.248477 3.504872 C 5.892205 3.499392 5.552375 3.6419 5.300244 3.899513 C 5.108404 4.085872 5.004263 4.348965 5.026187 4.617539 L 5.048112 4.886114 L 4.779537 4.908039 C 4.757613 4.908039 4.741169 4.91352 4.702801 4.91352 C 4.686358 4.91352 4.686358 4.91352 4.658953 4.91352 L 4.593179 4.91352 C 4.193057 4.875152 3.847747 4.639463 3.666869 4.288672 C 3.524361 4.491473 3.47503 4.743606 3.524361 4.984775 C 3.579172 5.258831 3.760049 5.489037 4.034104 5.626065 C 4.077953 5.653471 4.121803 5.686357 4.160171 5.719245 L 4.494519 6.015225 L 4.077953 6.179659 C 3.507917 6.404386 3.025579 6.799026 2.680268 7.336175 L 2.619976 7.407431 C 2.192448 7.94458 1.551157 8.278929 0.844093 8.328259 C 0.97564 8.662606 1.293544 8.887332 1.638855 8.909257 L 1.677223 8.909257 C 1.737515 8.909257 1.803289 8.898294 1.863581 8.887332 L 2.219854 8.816078 L 2.192448 9.177832 C 2.132156 9.967113 1.830694 10.63581 1.151036 10.948234 C 1.304507 11.134592 1.534714 11.238733 1.786845 11.238733 C 1.967722 11.238733 2.143118 11.200365 2.307552 11.118148 L 2.652863 10.942753 L 2.702193 11.326431 C 2.729598 11.562119 2.784409 11.792326 2.855664 12.011572 C 3.014616 12.422655 3.025579 12.872107 2.877588 13.310596 C 2.954324 13.321559 3.025579 13.332521 3.102314 13.332521 C 3.162607 13.332521 3.217418 13.32704 3.27771 13.310596 C 3.403776 13.283192 3.518879 13.222898 3.612059 13.146163 L 3.924482 12.88307 L 4.050548 13.272228 C 4.127284 13.475031 4.242387 13.661388 4.379415 13.80938 Z M 3.590134 7.533496 C 3.222899 8.130938 3.047503 8.827041 3.085871 9.528624 C 3.135201 10.679659 3.771011 11.677223 4.445189 12.477467 C 4.64799 12.729597 4.785018 13.025579 4.845311 13.343484 C 4.730207 13.03106 4.560292 12.740561 4.341047 12.488428 C 3.61754 11.649817 2.998173 10.7838 2.921437 9.534104 C 2.767966 9.989038 2.663824 10.263094 2.937881 8.843483 L 2.937881 8.854445 C 3.118757 7.401949 4.187576 6.355055 5.371498 5.719245 C 5.481121 5.658953 6.001827 5.286236 6.380024 5.286236 C 5.738733 5.631547 5.124848 6.020706 4.543849 6.459195 C 3.590134 7.533496 3.354446 8.196711 3.590134 7.533496 Z"/>
            <path id="path9" fill="#231f20" stroke="none" d="M 1.923873 7.007308 C 1.841656 7.034714 1.75944 7.045676 1.671742 7.045676 C 1.331913 7.045676 1.019488 6.859318 0.866017 6.557856 L 0.739951 6.272839 L 1.052375 6.256394 C 1.386723 6.196102 1.693666 6.020706 1.918392 5.768576 C 2.088307 5.587697 2.318514 5.489037 2.565165 5.483557 C 2.757004 5.489037 2.937881 5.543849 3.096833 5.642509 L 3.387333 5.84531 L 3.074908 6.009744 C 2.828258 6.152253 2.609014 6.344092 2.44458 6.568818 C 2.318514 6.766139 2.137637 6.914129 1.923873 7.007308 Z M 1.677223 6.771621 C 1.726553 6.771621 1.781364 6.766139 1.830694 6.749696 C 1.989647 6.678441 2.126675 6.563337 2.225335 6.409866 C 2.39525 6.179659 2.609014 5.976857 2.855664 5.823385 C 2.762485 5.785018 2.663824 5.757613 2.570645 5.757613 C 2.400731 5.757613 2.236297 5.828868 2.126675 5.949452 C 1.880025 6.22899 1.551157 6.42631 1.161997 6.514007 C 1.277101 6.67296 1.46894 6.771621 1.677223 6.771621 Z"/>
            <path id="path10" fill="#231f20" stroke="none" d="M 10.474422 3.78441 C 10.474422 2.699146 7.585871 2.710109 7.536541 3.833739 C 7.509136 4.398295 7.755785 5.072473 7.854446 5.631547 C 7.48173 5.84531 7.114494 6.059074 6.741778 6.272839 L 6.747259 6.272839 C 6.544458 6.376979 5.91961 6.799026 6.292326 7.062119 C 6.347137 6.689403 6.714373 6.497564 7.059683 6.568818 C 7.432399 6.645554 7.602314 6.979902 7.805116 7.264921 L 5.738733 7.264921 C 6.100487 7.884287 6.034714 8.558466 6.034714 9.243606 L 6.034714 11.825212 C 6.034714 12.433618 5.941535 13.162607 6.314251 13.688793 C 6.626675 14.121803 7.147382 14.324604 7.668087 14.357491 C 8.210718 14.395859 8.588916 14.308161 9.005482 14.713764 C 9.422047 14.30268 9.794763 14.390378 10.342875 14.357491 C 10.8581 14.324604 11.389769 14.121803 11.696712 13.688793 C 12.069427 13.162607 11.976249 12.439098 11.976249 11.825212 C 11.976249 10.964678 11.976249 10.104141 11.976249 9.243606 C 11.976249 8.558466 11.910475 7.884287 12.272228 7.264921 L 10.205847 7.264921 C 10.414129 6.979902 10.573082 6.645554 10.951279 6.568818 C 11.29659 6.497564 11.663825 6.689403 11.718636 7.062119 C 12.091352 6.799026 11.471986 6.376979 11.263702 6.272839 C 10.890987 6.059074 10.523752 5.84531 10.151035 5.631547 C 10.260657 5.017661 10.386724 4.403775 10.474422 3.78441 Z M 7.832522 3.987211 L 8.917784 4.348965 L 8.917784 6.031669 C 8.577953 5.850792 8.199756 5.774055 8.084653 5.417784 C 7.936662 4.973812 7.914738 4.453106 7.832522 3.987211 Z M 8.057248 7.566382 C 8.205237 7.714373 8.380634 7.834957 8.577953 7.911694 C 8.495737 8.224117 8.65469 8.547503 8.961633 8.662606 C 8.989038 8.914739 9.158952 9.12302 9.39464 9.210718 C 9.054811 9.550549 8.978075 9.517662 8.5067 9.51218 C 8.336783 9.51218 7.816078 9.60536 7.72838 9.397077 C 8.079171 9.51218 8.062728 9.249086 7.706455 9.232643 C 7.783192 8.97503 7.953106 8.635201 7.958587 8.372108 C 7.964068 8.152862 7.821559 7.950061 7.722899 7.747259 C 7.563946 7.911694 7.361145 8.065164 7.300852 8.273447 C 7.224117 8.531059 7.28441 8.898294 7.278928 9.172351 C 7.224117 9.161388 6.99391 9.090134 6.933617 9.144945 C 6.823996 9.243606 7.004872 9.309379 7.087089 9.309379 C 6.807552 9.468331 7.037759 9.912302 7.23508 10.054811 C 7.202192 10.246651 7.487211 10.383678 7.542022 10.153472 C 8.018879 10.208282 8.484775 10.29598 8.956151 10.378198 C 9.087698 10.400122 9.268575 10.465896 9.389159 10.433008 C 9.652254 10.361753 9.953715 10.027405 10.178441 9.868453 C 10.227771 9.906821 10.277102 9.945189 10.331912 9.967113 C 10.260657 10.197321 10.315469 10.449451 10.485383 10.619366 L 6.330694 10.619366 C 6.330694 10.153472 6.330694 9.687576 6.330694 9.221681 C 6.330694 8.67905 6.396468 8.087089 6.182704 7.577345 L 8.057248 7.577345 Z M 10.068819 9.731425 C 9.87698 9.873935 9.624847 10.142509 9.39464 10.213763 C 9.252131 10.257612 9.153472 10.230207 8.989038 10.202802 C 8.61084 10.137028 8.227162 10.065774 7.848965 10 C 7.876371 9.890377 7.898294 9.775274 7.898294 9.66017 C 8.238125 9.665651 8.616322 9.720463 8.945189 9.676614 C 9.312424 9.627284 9.515225 9.331304 9.778319 9.046285 C 9.833131 9.112058 9.893422 9.166869 9.964678 9.210718 C 9.931791 9.391595 9.970159 9.577953 10.068819 9.731425 Z M 7.591352 9.479293 C 7.624238 9.539586 7.673569 9.594398 7.733861 9.627284 C 7.733861 9.747868 7.717418 9.868453 7.684531 9.983556 C 7.465287 9.983556 7.141901 9.873935 7.136419 9.599878 C 7.130938 9.380634 7.498173 9.227162 7.591352 9.479293 Z M 7.437881 9.188794 C 7.448843 8.733861 7.361145 8.355664 7.67905 8.021316 C 7.881851 8.437881 7.673569 8.772229 7.547503 9.205237 Z M 10.057857 14.077954 C 9.97564 14.077954 9.904385 14.077954 9.833131 14.083435 C 9.953715 13.710718 10.057857 13.606577 9.838612 13.283192 C 9.97564 13.365408 10.112668 13.436663 10.260657 13.502436 C 10.249696 13.518879 10.057857 14.077954 10.057857 14.077954 Z M 10.61145 13.464067 L 10.496346 14.056029 C 10.425092 14.066992 10.342875 14.072473 10.266139 14.072473 C 10.299026 13.929964 10.425092 13.639463 10.386724 13.502436 C 10.32095 13.255786 9.887942 13.168088 9.73447 12.948843 C 9.405602 13.222898 8.566991 12.855663 8.41352 13.195494 L 7.783192 13.047503 C 7.706455 13.173569 7.552985 13.321559 7.67905 13.464067 C 7.640682 13.546285 7.585871 13.623021 7.520097 13.688793 C 7.224117 13.403775 7.525578 13.058465 7.690012 12.78989 L 8.221681 12.866626 C 8.040804 12.526796 8.177832 12.291109 8.2162 11.940316 C 8.205237 12.017053 7.865408 12.000608 7.766748 12.088306 C 7.503654 11.95676 7.821559 11.721071 7.931181 11.600487 L 7.618757 11.238733 L 8.051766 11.452497 L 8.183313 11.293545 C 8.221681 11.326431 8.205237 11.419611 8.205237 11.419611 C 8.775274 11.562119 8.545067 12.176004 9 12.323996 C 9.378198 12.45006 9.909866 12.186967 10.22229 12.389769 C 10.622411 12.115713 11.011571 12.915956 11.170524 13.162607 C 10.874543 13.595615 10.627892 12.833739 10.523752 12.707674 C 10.468941 12.647381 10.408648 12.477467 10.304506 12.609014 C 10.194884 12.746041 10.540195 13.217419 10.627892 13.299635 C 10.633373 13.310596 10.622411 13.398295 10.61145 13.464067 Z M 7.377588 12.899512 C 7.410475 13.025579 7.300852 13.074909 7.180268 13.113276 C 7.021315 12.850183 7.196711 12.609014 7.454324 12.504871 C 7.646163 12.428137 7.722899 12.455542 7.942143 12.504871 C 7.942143 12.576127 7.964068 12.6419 8.002437 12.702192 C 7.931181 12.685749 7.191231 12.587089 7.377588 12.899512 Z M 10.66626 14.023143 C 10.704629 13.814859 10.753959 13.606577 10.786845 13.392814 C 11.022533 13.491474 11.236298 13.387333 11.378806 13.190012 C 11.011571 12.619976 10.792327 12.197929 10.085261 12.170523 C 9.756394 12.15408 9.213763 12.345921 8.912302 12.115713 L 9.038367 12.066383 C 8.972595 11.71011 8.714981 11.419611 8.369672 11.304506 C 8.347746 11.216808 8.249086 11.118148 8.177832 11.068819 C 8.12302 11.134592 8.068209 11.200365 8.013399 11.266138 L 7.191231 10.931791 L 7.72838 11.595006 C 7.624238 11.748478 7.443362 11.91291 7.542022 12.088306 C 7.684531 12.329476 7.827041 12.115713 7.991474 12.143118 C 7.980511 12.176004 7.964068 12.313032 7.958587 12.345921 C 7.28989 12.214373 6.774665 12.625456 7.103532 13.321559 C 7.152862 13.299635 7.202192 13.283192 7.251522 13.261267 C 7.141901 13.535323 7.361145 13.743605 7.520097 13.935445 C 7.668087 13.787455 7.821559 13.628502 7.87089 13.420219 C 7.843483 13.392814 7.821559 13.365408 7.799634 13.338003 L 7.87089 13.222898 C 8.079171 13.272228 8.287455 13.321559 8.501218 13.370889 C 8.60536 13.020098 9.285019 13.305117 9.570036 13.222898 C 9.570036 13.222898 9.844092 13.529842 9.855055 13.546285 C 9.794763 13.727161 9.73447 13.908039 9.679659 14.088915 C 9.427527 14.088915 9.186358 14.187576 9.016444 14.368453 C 8.566991 13.929964 7.936662 14.15469 7.383069 14.028624 C 6.741778 13.880633 6.374543 13.398295 6.347137 12.751522 C 6.314251 12.093788 6.347137 11.425092 6.347137 10.767357 L 11.69123 10.767357 C 11.674787 11.803288 12.047503 13.727161 10.66626 14.023143 Z M 11.822777 7.566382 C 11.548721 8.213155 11.674787 9.035322 11.674787 9.720463 C 11.455542 9.671132 11.323995 9.468331 11.318514 9.254567 C 11.011571 9.260049 10.797808 8.996955 10.792327 8.706455 C 10.600488 9.007917 10.847138 9.358708 11.170524 9.402557 C 11.208892 9.65469 11.417174 9.857491 11.674787 9.890377 L 11.674787 10.613886 C 11.225335 10.613886 10.085261 10.712545 10.551157 9.868453 C 10.22229 9.769793 10.041412 9.462851 10.161998 9.128502 C 9.893422 9.02436 9.73447 8.717418 9.772838 8.432399 C 9.646772 8.558466 9.613886 8.750304 9.696102 8.903776 C 9.652254 8.953106 9.591961 9.013399 9.531669 9.079171 C 9.279537 9.02436 9.120584 8.799634 9.126065 8.547503 C 8.862972 8.470767 8.66017 8.246041 8.742388 7.950061 C 9.180877 8.048721 9.48782 7.867845 9.849573 7.665043 C 10.052375 7.55542 10.12363 7.560901 10.381243 7.560901 C 10.8581 7.566382 11.340439 7.566382 11.822777 7.566382 Z M 10.381243 6.064555 C 10.534714 6.152253 10.688185 6.239951 10.841657 6.327649 C 10.019488 6.546894 9.948234 7.736298 9 7.736298 C 8.051766 7.736298 7.980511 6.546894 7.158343 6.327649 C 7.437881 6.174178 7.717418 6.009744 7.996955 5.850792 L 9 6.387941 L 9.005482 6.387941 L 10.008526 5.850792 Z M 9.887942 5.620584 L 9.087698 6.03715 L 9.087698 4.354445 L 10.172959 3.992691 Z M 9 4.168087 L 7.810597 3.702192 C 8.079171 3.066382 9.915347 3.066382 10.183922 3.702192 Z"/>
        </g>
    </g>
</svg>
