<?xml version="1.0" encoding="UTF-8"?>
<!-- Generated by Pixelmator Pro 3.2.3 -->
<svg width="18" height="18" viewBox="0 0 18 18" xmlns="http://www.w3.org/2000/svg" xmlns:xlink="http://www.w3.org/1999/xlink">
    <g id="yandexbank">
        <linearGradient id="linearGradient1" x1="0.40576" y1="11.359067" x2="17.778044" y2="11.359067" gradientUnits="userSpaceOnUse">
            <stop offset="1e-05" stop-color="#ef4136" stop-opacity="1"/>
            <stop offset="1" stop-color="#662d91" stop-opacity="1"/>
        </linearGradient>
        <path id="path1" fill="url(#linearGradient1)" stroke="none" d="M 15.963191 16.870003 L 2.222311 16.870003 C 1.220372 16.870003 0.406297 16.055923 0.406297 15.053988 L 0.406297 7.664684 C 0.406297 6.662744 1.220372 5.848669 2.222311 5.848669 L 15.954247 5.848669 C 16.956186 5.848669 17.770262 6.662744 17.770262 7.664684 L 17.770262 15.053988 C 17.779207 16.055923 16.965132 16.870003 15.963191 16.870003 Z"/>
        <linearGradient id="linearGradient2" x1="0.290268" y1="8.935" x2="17.662642" y2="8.935" gradientUnits="userSpaceOnUse">
            <stop offset="1e-05" stop-color="#ef4136" stop-opacity="1"/>
            <stop offset="1" stop-color="#662d91" stop-opacity="1"/>
        </linearGradient>
        <path id="path2" fill="url(#linearGradient2)" stroke="none" opacity="0.5" d="M 15.846896 14.445666 L 2.106015 14.445666 C 1.104075 14.445666 0.29 13.63159 0.29 12.62965 L 0.29 5.24035 C 0.29 4.238409 1.104075 3.424335 2.106015 3.424335 L 15.837949 3.424335 C 16.83989 3.424335 17.653967 4.238409 17.653967 5.24035 L 17.653967 12.62965 C 17.662909 13.63159 16.848835 14.445666 15.846896 14.445666 Z"/>
        <linearGradient id="linearGradient3" x1="0.290268" y1="6.510933" x2="17.662642" y2="6.510933" gradientUnits="userSpaceOnUse">
            <stop offset="1e-05" stop-color="#ef4136" stop-opacity="1"/>
            <stop offset="1" stop-color="#662d91" stop-opacity="1"/>
        </linearGradient>
        <path id="path3" fill="url(#linearGradient3)" stroke="none" opacity="0.21" d="M 15.846896 12.021332 L 2.106015 12.021332 C 1.104075 12.021332 0.29 11.207255 0.29 10.205317 L 0.29 2.816014 C 0.29 1.814075 1.104075 1 2.106015 1 L 15.837949 1 C 16.83989 1 17.653967 1.814075 17.653967 2.816014 L 17.653967 10.205317 C 17.662909 11.207255 16.848835 12.021332 15.846896 12.021332 Z"/>
        <path id="path4" fill="#ffffff" stroke="none" d="M 10.738794 14.731934 L 10.738794 8.210383 C 10.738794 8.210383 6.990469 7.521549 6.641578 9.766968 C 6.292689 12.012384 7.965571 12.423895 7.965571 12.423895 L 6.587904 14.731934 L 7.670357 14.731934 L 9.343236 12.307598 C 9.343236 12.307598 6.256905 10.232155 8.654403 8.935 L 9.692125 8.935 L 9.745802 14.731934 L 10.738794 14.731934 Z"/>
    </g>
</svg>
