<?xml version="1.0" encoding="UTF-8" standalone="no"?>
<!DOCTYPE svg PUBLIC "-//W3C//DTD SVG 1.1//EN" "http://www.w3.org/Graphics/SVG/1.1/DTD/svg11.dtd">
<svg version="1.1" xmlns="http://www.w3.org/2000/svg" xmlns:xlink="http://www.w3.org/1999/xlink" preserveAspectRatio="xMidYMid meet" viewBox="0 0 18 18" width="18" height="18"><defs><path d="M17.95 17.7C16.08 15.41 14.34 14.98 12.61 14.61C10.5 14.16 9.42 13.01 8.66 11.74C8.51 11.5 8.44 11.54 8.43 11.87C8.41 12.25 8.44 12.78 8.53 13.29C8.53 13.29 8.53 13.29 8.53 13.29C8.44 13.3 8.36 13.3 8.27 13.3C5.26 13.3 2.81 10.93 2.81 8.01C2.81 5.08 5.26 2.71 8.27 2.71C11.3 2.71 13.74 5.08 13.74 8.01C13.74 8.22 13.74 8.42 13.71 8.62C13.31 8.55 12.53 8.54 11.97 8.59C11.76 8.6 11.79 8.7 11.95 8.73C13.76 9.04 15 10.13 15.28 12.1C15.29 12.14 15.36 12.15 15.38 12.11C16.12 10.92 16.55 9.5 16.55 8.01C16.55 3.59 12.84 0 8.27 0C3.71 0 0 3.59 0 8.01C0 12.43 3.71 16.01 8.27 16.01C9.49 16.01 10.69 15.78 12.45 15.78C14.04 15.78 15.76 16.31 17.67 17.94C17.85 18.1 18.11 17.9 17.95 17.7ZM12.86 14C12.66 14 12.45 13.93 12.3 13.8C11.96 13.52 11.86 13.06 12.09 12.8C12.17 12.7 12.31 12.64 12.48 12.64C12.68 12.64 12.89 12.73 13.07 12.87C13.44 13.18 13.55 13.54 13.35 13.79C13.25 13.93 13.07 14 12.86 14ZM14.77 12.11C14.82 12.46 14.71 12.61 14.59 12.61C14.47 12.61 14.31 12.46 14.12 12.18C13.94 11.91 13.87 11.59 13.97 11.43C14.02 11.33 14.15 11.28 14.31 11.33C14.61 11.45 14.74 11.9 14.77 12.11" id="a4f1jzY4To"></path><path d="M13.94 14.2C12.48 12.36 11.14 12.01 9.8 11.72C8.16 11.36 7.31 10.44 6.73 9.42C6.61 9.22 6.56 9.26 6.55 9.52C6.53 9.83 6.55 10.25 6.63 10.66C6.63 10.66 6.63 10.66 6.63 10.66C6.56 10.67 6.49 10.67 6.42 10.67C4.08 10.67 2.18 8.77 2.18 6.42C2.18 4.08 4.08 2.18 6.42 2.18C8.77 2.18 10.67 4.08 10.67 6.42C10.67 6.59 10.67 6.75 10.64 6.91C10.34 6.86 9.73 6.85 9.3 6.89C9.14 6.9 9.16 6.98 9.28 7C10.68 7.26 11.65 8.13 11.87 9.7C11.87 9.74 11.93 9.75 11.94 9.72C12.52 8.76 12.85 7.62 12.85 6.42C12.85 2.88 9.97 0 6.42 0C2.88 0 0 2.88 0 6.42C0 9.97 2.88 12.85 6.42 12.85C7.37 12.85 8.3 12.66 9.67 12.66C10.9 12.66 12.24 13.08 13.72 14.39C13.87 14.52 14.07 14.36 13.94 14.2ZM9.99 11.24C9.83 11.24 9.67 11.17 9.55 11.07C9.29 10.85 9.21 10.48 9.39 10.27C9.45 10.19 9.56 10.14 9.69 10.14C9.85 10.14 10.01 10.21 10.15 10.33C10.44 10.57 10.52 10.86 10.37 11.06C10.29 11.17 10.15 11.24 9.99 11.24ZM11.47 9.72C11.51 10 11.42 10.11 11.33 10.11C11.24 10.11 11.11 10 10.97 9.77C10.82 9.55 10.77 9.3 10.85 9.17C10.89 9.09 10.99 9.05 11.11 9.09C11.35 9.18 11.44 9.55 11.47 9.72" id="a1xIqZS5EW"></path></defs><g><g><g><use xlink:href="#a4f1jzY4To" opacity="1" fill="#f57d14" fill-opacity="1"></use><g><use xlink:href="#a4f1jzY4To" opacity="1" fill-opacity="0" stroke="#000000" stroke-width="1" stroke-opacity="0"></use></g></g><g><use xlink:href="#a1xIqZS5EW" opacity="1" fill="#000000" fill-opacity="0"></use><g><use xlink:href="#a1xIqZS5EW" opacity="1" fill-opacity="0" stroke="#000000" stroke-width="1" stroke-opacity="0"></use></g></g></g></g></svg>