<?xml version="1.0" encoding="UTF-8" standalone="no"?>
<!DOCTYPE svg PUBLIC "-//W3C//DTD SVG 1.1//EN" "http://www.w3.org/Graphics/SVG/1.1/DTD/svg11.dtd">
<svg version="1.1" xmlns="http://www.w3.org/2000/svg" xmlns:xlink="http://www.w3.org/1999/xlink" preserveAspectRatio="xMidYMid meet" viewBox="0 0 25 25" width="25" height="25"><defs><path d="M7.25 12.73C7.25 17.67 11.24 21.6 16.12 21.6C21.01 21.6 25 17.62 25 12.73C25.06 7.84 21.01 3.85 16.12 3.85C11.18 3.85 7.25 7.84 7.25 12.73ZM12.81 12.73C12.81 10.93 14.33 9.41 16.12 9.41C17.92 9.41 19.44 10.93 19.44 12.73C19.44 14.53 17.98 16.04 16.12 16.04C14.33 16.04 12.81 14.53 12.81 12.73Z" id="cVFZ9khSu"></path><path d="M7.25 19.36L4.04 19.36L0 6.44L7.25 6.44L7.25 6.44L7.25 19.36Z" id="a9AQ3u1Bg"></path></defs><g><g><g><use xlink:href="#cVFZ9khSu" opacity="1" fill="#8b3ffd" fill-opacity="1"></use><g><use xlink:href="#cVFZ9khSu" opacity="1" fill-opacity="0" stroke="#000000" stroke-width="1" stroke-opacity="0"></use></g></g><g><use xlink:href="#a9AQ3u1Bg" opacity="1" fill="#8b3ffd" fill-opacity="1"></use><g><use xlink:href="#a9AQ3u1Bg" opacity="1" fill-opacity="0" stroke="#000000" stroke-width="1" stroke-opacity="0"></use></g></g></g></g></svg>